<?xml version="1.0" encoding="UTF-8"?>
<!DOCTYPE svg PUBLIC "-//W3C//DTD SVG 1.1//EN" "http://www.w3.org/Graphics/SVG/1.1/DTD/svg11.dtd">
<!-- Creator: CorelDRAW 2018 (64-Bit) -->
<svg xmlns="http://www.w3.org/2000/svg" xml:space="preserve" width="129.158mm" height="130mm" version="1.1" viewBox="0 0 12915.78 13000" xmlns:xlink="http://www.w3.org/1999/xlink">
 <defs>
  
 </defs>
 <g id="&#x421;&#x43B;&#x43E;&#x439;_x0020_1">
  <metadata id="CorelCorpID_0Corel-Layer"/>
  <polygon class="fil0 str0" points="376.53,2976.09 3759.37,2976.09 3759.37,516.37 399.75,516.37 "/>
  <polygon class="fil0 str0" points="9036.34,2981.33 12419.18,2981.33 12419.18,521.61 9059.56,521.61 "/>
  <polygon class="fil0 str0" points="3995.13,3870.64 8884.65,3855.36 8083.89,2962.33 8083.89,517.7 4724.27,517.7 4705.08,2959.56 "/>
  <polygon class="fil0 str0" points="2588.52,2422.35 3162.95,2422.35 3162.95,1526.74 2592.46,1526.74 "/>
  <polygon class="fil0 str0" points="9584.78,2421.77 10159.21,2421.77 10159.21,1526.16 9588.72,1526.16 "/>
  <rect class="fil1" x="335.52" y="4548.14" width="3498.13" height="221.27"/>
  <rect class="fil1" x="720.1" y="4117.29" width="198.85" height="1801.75"/>
  <rect class="fil1" x="1534.05" y="4120.22" width="204.12" height="1801.75"/>
  <rect class="fil1" x="2326.17" y="4119.05" width="203.87" height="1801.75"/>
  <circle class="fil0 str0" cx="840.99" cy="6287.82" r="395.42"/>
  <circle class="fil0 str0" cx="1647.59" cy="6286.77" r="395.42"/>
  <circle class="fil0 str0" cx="2437" cy="6286.38" r="395.42"/>
  <rect class="fil0 str0" x="452.19" y="7922.15" width="3287.39" height="4562.34"/>
  <rect class="fil0 str0" x="3738.72" y="7922.19" width="5395.59" height="4562.34"/>
  <rect class="fil0 str0" x="9133.14" y="7921.26" width="3287.39" height="4562.34"/>
  <rect class="fil0 str0" x="452.19" y="7922.15" width="3287.39" height="1750.52"/>
  <rect class="fil0 str0" x="9133.14" y="7921.27" width="3287.39" height="1765.88"/>
  <rect class="fil0 str0" x="1733.11" y="8582.8" width="718.39" height="382.54"/>
  <rect class="fil0 str0" x="1733.11" y="10261.34" width="718.39" height="382.54"/>
  <rect class="fil0 str0" x="10383.61" y="8549.14" width="718.39" height="382.54"/>
  <rect class="fil0 str0" x="9711.19" y="10624.84" width="432" height="674.34"/>
  <rect class="fil0 str0" x="11318.02" y="10624.84" width="432" height="674.34"/>
  <rect class="fil0 str0" x="4545.67" y="9644.92" width="3635.1" height="1954.53"/>
  <rect class="fil0 str0" x="4898.65" y="8491.17" width="484.68" height="479.41"/>
  <rect class="fil0 str0" x="5734.56" y="8491.17" width="484.68" height="479.41"/>
  <rect class="fil0 str0" x="6568.4" y="8489.82" width="484.68" height="479.41"/>
  <rect class="fil0 str0" x="7381.46" y="8489.53" width="484.68" height="479.41"/>
  <rect class="fil0 str0" x="4118.93" y="6641.14" width="2138.92" height="1281.05"/>
  <rect class="fil0 str1" x="3563.44" y="7136.38" width="534.73" height="0.8"/>
  <rect class="fil0 str1" x="6274.57" y="7146.92" width="534.73" height="0.8"/>
  <path class="fil0 str0" d="M10704.27 5809.56c0,0 10.54,-763.9 642.73,-763.9 632.2,0 653.27,774.44 653.27,774.44l0 2101.17"/>
 </g>
</svg>
