<svg xmlns="http://www.w3.org/2000/svg" width="24" height="24.002" viewBox="0 0 24 24.002">
  <g id="Group_1785" data-name="Group 1785" transform="translate(-1608 -268.999)">
    <path id="Path_1201" data-name="Path 1201" d="M24.8,6.8h-6v-2a2.9,2.9,0,0,0-3-2.8H12.2a2.9,2.9,0,0,0-3,2.8v2h-6a1.2,1.2,0,1,0,0,2.4H4.4V22.4A3.6,3.6,0,0,0,8,26H20a3.6,3.6,0,0,0,3.6-3.6V9.2h1.2a1.2,1.2,0,0,0,0-2.4Zm-13.2-2c0-.192.252-.4.6-.4h3.6c.348,0,.6.2.6.4v2H11.6Zm9.6,17.6A1.2,1.2,0,0,1,20,23.6H8a1.2,1.2,0,0,1-1.2-1.2V9.2H21.2Z" transform="translate(1606 267)"/>
    <path id="Path_1202" data-name="Path 1202" d="M9.2,18.2A1.2,1.2,0,0,0,10.4,17V12.2a1.2,1.2,0,0,0-2.4,0V17A1.2,1.2,0,0,0,9.2,18.2Z" transform="translate(1607.2 268.8)"/>
    <path id="Path_1203" data-name="Path 1203" d="M15.2,18.2A1.2,1.2,0,0,0,16.4,17V12.2a1.2,1.2,0,0,0-2.4,0V17A1.2,1.2,0,0,0,15.2,18.2Z" transform="translate(1608.4 268.8)"/>
  </g>
</svg>
