<?xml version="1.0" encoding="UTF-8"?>
<!DOCTYPE svg PUBLIC "-//W3C//DTD SVG 1.1//EN" "http://www.w3.org/Graphics/SVG/1.1/DTD/svg11.dtd">
<!-- Creator: CorelDRAW 2018 (64-Bit) -->
<svg xmlns="http://www.w3.org/2000/svg" xml:space="preserve" width="200mm" height="200mm" version="1.1" style="shape-rendering:geometricPrecision; text-rendering:geometricPrecision; image-rendering:optimizeQuality; fill-rule:evenodd; clip-rule:evenodd"
viewBox="0 0 20000 20000"
 xmlns:xlink="http://www.w3.org/1999/xlink">
 <defs>
  <style type="text/css">
   <![CDATA[
    .str0 {stroke:white;stroke-width:200;stroke-miterlimit:22.9256}
    .str1 {stroke:white;stroke-width:250;stroke-miterlimit:22.9256}
    .fil0 {fill:none}
    .fil1 {fill:white}
   ]]>
  </style>
 </defs>
 <g id="Слой_x0020_1">
  <metadata id="CorelCorpID_0Corel-Layer"/>
  <path class="fil0 str0" d="M4452.75 3499.5c1644.49,-1498.93 3789.42,-2329.8 6014.54,-2329.8 4931,0 8928.37,3997.37 8928.37,8928.37 0,4931 -3997.37,8928.37 -8928.37,8928.37 -1495.44,0 -2966.93,-375.62 -4279.41,-1092.4"/>
  <path class="fil0 str1" d="M494.64 10585.42l0 -4700.12 9590.36 0 0 4877.02m0 658.81l0 2195.6 -5175.56 0m-2732.94 0l-1681.86 0 0 -971.7"/>
  <path class="fil0 str1" d="M10133.84 10758.34l0 -794.91 3241.22 0c248.34,1.19 443.88,49.92 649.97,212.18 198.35,120.74 399.35,463.29 397.01,679.09l0 2763.2 -1188.38 0m-2607.51 0l-492.31 0 0 -2194.15"/>
  <path class="fil0 str1" d="M10085 7997.71c943.53,0 1887.07,0 2830.6,0 265.82,144.33 291.56,615.33 274.64,1161.77l0 823.91 -3105.24 0 0 -1985.68z"/>
  <path class="fil0 str1" d="M10085 6962.63c765.74,0 1531.48,0 2297.23,0 198.48,0 491.15,59.62 491.15,834.33l0 200.75 -2788.38 0 0 -1035.08z"/>
  <circle class="fil0 str1" cx="3557.96" cy="13822.56" r="1282.38"/>
  <circle class="fil0 str1" cx="11960.34" cy="13820.99" r="1282.38"/>
  <circle class="fil0 str1" cx="11975.37" cy="13839.59" r="264.05"/>
  <rect class="fil1" x="5577.81" y="12422.85" width="3604.31" height="252.5"/>
  <path class="fil0 str1" d="M3848.28 9321.87l1259.82 1194.08m-158.87 26.54l2476.95 -2408.85"/>
  <path class="fil0 str1" d="M14400.97 12083.25c-423.84,0 -520.91,0 -944.75,0 -304.24,-39.15 -457.72,-307.66 -450.13,-580.88l0 -411.95 1394.88 0 0 992.83z"/>
  <circle class="fil0 str1" cx="3557.96" cy="13842.52" r="264.05"/>
  <rect class="fil1" x="-708.26" y="12418.42" width="2673.53" height="253.63"/>
  <rect class="fil1" x="-66.29" y="11414.48" width="3386.47" height="227.82"/>
 </g>
</svg>
