<?xml version="1.0" encoding="UTF-8"?>
<!DOCTYPE svg PUBLIC "-//W3C//DTD SVG 1.1//EN" "http://www.w3.org/Graphics/SVG/1.1/DTD/svg11.dtd">
<!-- Creator: CorelDRAW 2018 (64-Bit) -->
<svg xmlns="http://www.w3.org/2000/svg" xml:space="preserve" width="175mm" height="47mm" version="1.1" style="shape-rendering:geometricPrecision; text-rendering:geometricPrecision; image-rendering:optimizeQuality; fill-rule:evenodd; clip-rule:evenodd"
viewBox="0 0 17500 4700"
 xmlns:xlink="http://www.w3.org/1999/xlink">
 <defs>
  <style type="text/css">
   <![CDATA[
    .fil0 {fill:#344962}
    .fil1 {fill:#344962;fill-rule:nonzero}
   ]]>
  </style>
 </defs>
 <g id="Слой_x0020_1">
  <metadata id="CorelCorpID_0Corel-Layer"/>
  <g id="_1790358117264">
   <path class="fil0" d="M2777.05 1988.14c-120.84,-78.92 -196.7,-184.99 -218.16,-230.14 -27.44,-41.38 -32.98,-98.2 111.32,-75.8 61.38,9.49 125.76,15.18 187.1,44.92 -39.65,-14.63 -261.01,-49.18 -283.21,-30.33 46.79,143.09 123.32,158.59 202.95,291.35zm-1225.25 1365.5c-41.13,71 -190.91,272.71 -229.79,297.43 142.84,27.76 375.72,-135.72 448.88,-282.58 4.34,-8.73 102.04,4.62 182.85,-83.38 49.22,-62.98 74.47,-135.38 37.52,-182.56 107.5,-1.3 181.73,-22.05 222.82,-88.27 47.21,33.62 82.01,56.52 154.15,62.2 31.15,-66.01 47.63,-102.43 24.23,-219.22 123.56,80.31 243.12,225.23 302.75,381.17 93.44,244.41 88.55,675.67 64.03,933.02l18.65 -58.75c22.16,-188.26 18.91,-275.88 19.18,-336.69 0.05,-12.5 239.96,-82.83 248.31,-343.73 26.46,22.17 80.22,189.01 81.08,217.58 0.19,6.88 16.45,-13.35 21.82,-21.14 62.92,-91.27 146.3,-301.2 22.16,-663.14 71.69,36.61 131.88,148.18 143.74,189.6 0.01,0.06 0.02,-0.83 0.17,-2.49 15.81,-172.26 13.82,-329.79 -95.22,-508.82 13.27,5 127.26,41.55 165.74,125.83 7.78,-75.32 -27.34,-222.25 -48.19,-283.17 19.59,2.15 159.19,47.41 171.68,81.82 38.12,49.18 4.78,113.39 93.76,121.45 0.23,-0.22 317.83,-582.41 316.38,-591.52 -63.44,-71.61 -167.37,-122.22 -262.09,-180.97 -85.59,-53.1 -199.71,-81.38 -207.17,-89.13 -8.03,-8.34 22.91,-37.42 -6.36,-77.78 -24.84,-34.21 -117.39,-103.63 -162.87,-128.32 31.97,-50.06 54.85,-100.08 18.65,-159.17 -203.31,-371.52 -876.79,-147.53 -1141.21,40.95 -147.14,104.89 -270.91,410.38 -235.49,677.86 19.35,139.67 60.82,247.86 149.09,360.34 -356.4,-77.47 -525.19,-245.15 -590.59,-409.23 -23.34,-57.92 -92.82,-392.26 -151.63,-528.13 -120.43,-282.68 -261.2,-398.61 -408.13,-571.35 -120.52,-141.67 -148.88,-1015.91 -156.75,-1005.8 -303.12,389.2 -219.09,675.12 -186.24,806.09l-150.96 -450.94c-220.51,323.25 -108.95,572.11 -50.87,704.33 -67.75,-85.17 -124.61,-195.14 -146.47,-265.35 -100.2,322.23 49.36,610.71 100.48,712.79 -51.72,-45.86 -170.41,-185.93 -170.41,-185.93 -47.93,184.06 52.05,447.31 51.79,447.04 -8.63,-8.62 -89.93,-52.55 -89.93,-51.11 0,219.55 101.43,451.59 187.34,525.12 -46.06,-23.84 -143.84,-41.39 -142.21,-39.75 35.5,255.02 162.49,346.65 325.53,406.01 -115.7,4.55 -214.31,40.51 -213.6,41.71 115.06,194.89 348.47,235.11 555.85,248.02 -32.92,31.29 -221.93,51.28 -340.38,65.19 69.82,187.56 328.25,168.87 486.96,174.03 -46.47,37.84 -219.45,104.64 -294.97,128.73 116.45,121.84 289.2,121.43 501.54,82.49 -28.08,28.86 -159.71,98.43 -192.67,122.1 307.54,101.03 442.86,-0.24 557.07,-144.48zm569.13 832.95c-22.74,-77.52 -60.22,-212.39 -56.21,-316.91 3.11,-61.74 13.3,-134.15 5.43,-118.81 -35.27,35.83 -43.11,215.07 -27.36,262.42 8.4,25.29 34,134.77 78.14,173.3zm-1816.45 -1500.71c98.57,-50.02 554.77,-38.48 681.71,-39.94 -44.8,33.98 -79.89,80.69 -101.67,119.54 46.57,18.01 173.81,26.01 234.95,19.79 -164.27,162.98 -698.79,86.09 -814.99,-99.39zm-114.6 -432.55c117.68,33.66 322.64,135.96 445.56,167.48 31.42,8.05 57.81,7.61 68.3,16.24 108.66,89.34 244.47,92.47 458.28,39.18 -126.02,150.02 -263.59,142.04 -400.7,148.38 -286.67,18.43 -521.58,-127.46 -571.44,-371.28zm1148.5 1393.88c163.97,-114.08 214.59,-318.85 426.41,-435.66 26.73,180.8 -198.28,424.75 -426.41,435.66zm438.62 -291.4c-3.6,-178.79 45.97,-287.27 177.65,-317.21 -20.73,94.33 43.89,67.55 42.17,91.47 -10.01,138.72 -151.38,220.17 -219.82,225.74zm-762.67 139.99c90.78,-46.91 309.04,-164.43 422.37,-294.03 35.52,-40.64 99.41,-115.09 158.12,-138.28 -32.01,145.1 -61.3,284.92 -151.08,363.54 -70.06,61.36 -298.19,103.8 -429.41,68.77zm328.91 -271.75c-138.29,136.05 -440.84,212.16 -635.96,76.15 222.68,-56.91 428.48,-171.95 623.37,-299.17 -13.3,38.46 -52.85,170.28 -47.3,210.92l59.89 12.1zm629.24 -130.14c-5.75,-68.78 70.87,-141.11 120.68,-189.52 33.84,21.7 91.59,79.31 113.02,101.65 -45.73,61.17 -164.04,83.49 -233.7,87.87zm-414.54 224.57c32.26,-134.57 19.91,-285.19 167.89,-417.71 45.67,9.36 94.4,2.44 144.91,-14.05 -10.33,185.85 -188.46,379.67 -312.8,431.76zm291.13 -255.76c16.21,-57.55 5.86,-138.91 109.19,-268.82l120.73 98.72c-34.21,53.43 -165.1,151.71 -229.92,170.1zm-815.42 -22.87c18.03,10.74 118.66,20.4 178.02,12.81 -172.73,84.11 -611.05,125.01 -705.89,-51.58 245.76,-9.12 358.52,-32.41 647.95,-178.82 -90.31,83.88 -120.03,143.01 -120.08,217.59zm263.3 160.42c31.9,-134.88 152.17,-352.59 304.76,-450.38 48.98,20.47 81.46,48.94 155.12,49.7 -46.26,114.9 -310.83,365.99 -459.88,400.68zm454.89 -314.33c-0.11,-50.49 45.25,-128.02 78.92,-159.61l111.73 60.24c-35.8,49.23 -83.53,111.91 -190.65,99.37zm-141.5 -146.17c25.05,-56.18 154.71,-80.42 202.68,-25.12l-57.47 65.63c-47.51,12.4 -96.08,-6.07 -145.21,-40.51zm91.98 -72.92c-49.94,-0.54 -68.89,13.81 -81.55,28.52 -153.79,178.59 -371.58,301.68 -574.92,336.04 21.85,-97.54 356.53,-466.98 430.79,-481.84 29.47,29.3 149.49,53.11 225.68,117.28zm-807.78 95.08c67.87,-120.08 381.89,-324.34 511.98,-370.51 19.28,45.8 41.38,66.89 56.33,115.05 -233.24,240 -370.58,294.78 -568.31,255.46zm-176.38 -338.59c58.89,-98.55 429.2,-214.63 612.81,-193.33l33.65 109.87c-198.46,168.58 -537.8,165.28 -646.46,83.46zm-142.61 -341.34c45.6,-46.09 172.74,-83.43 308.56,-84.05 170.42,-0.8 353.2,43.64 390.05,58.62 18.73,7.63 22.67,57.85 34.43,113.89 -117.37,6.68 -223.3,46.47 -342.35,37.8 -142.5,-10.35 -307.24,-48.11 -390.69,-126.26zm-442.08 -315.32c143.29,56.45 294.98,396.68 826.42,478.97 -143.27,56.06 -211.35,141.31 -270.21,136.7 -53.37,-4.2 -205.06,-62.35 -247.11,-85.54 -149.16,-82.33 -263.26,-232.4 -309.1,-530.13zm3154.51 96c60.72,36.9 88.59,66.85 175.41,109.42 2.47,-9.12 -128.11,-92.33 -129.86,-103.35 -4.67,-29.45 110.75,10.14 112.58,-9.23l460.41 239.32c-58.54,118.04 -97.86,197.12 -165.97,244.3 -155.77,-12.39 -274.91,-30.9 -415.39,-22.51 -10.26,-45.23 -95.39,-134.51 -68.12,-88.7 17.3,29.07 63.34,93.49 51.26,187.93 17.46,-41.94 23.98,-52.17 19,-88.73 127.71,-2.2 267.69,6.86 413.12,25.61 -19,89.15 -120.88,292.42 -140.44,325.18 -73.66,5.06 -34.12,-113.57 -65.99,-183.05 -8.06,44.9 -19.97,29.88 -22.21,33.83 -2.54,4.45 -55.27,-33.95 -158.92,-75.7 -68.9,-11.41 -239.27,-13.86 -248.12,-36.36 -70.92,-150.85 -301.78,-787 -26.39,-831.08 83.75,-13.4 377.74,140.59 350.11,246.92 -87.03,-13.07 -144.45,-51.28 -140.48,26.2zm-2267.55 -48.07c213.25,110.98 212.3,87.79 242.33,200.55 -172.51,-16 -485.71,-70.71 -695.18,-264.16 112.92,-34.94 366.83,18.84 452.85,63.61zm-134.39 150.13c-156.98,-29.96 -300.75,51.87 -331.14,99.62 -241.72,-121.69 -383.7,-384.98 -379.62,-674.12 47.73,53.01 170.35,206.57 306.36,322.79 92.19,78.75 295.71,210.58 404.4,251.71zm2205.95 464.1c37.62,49.4 105.93,28.53 211.93,51.18l24.48 184.06c-34.76,-22.26 -96.95,-33.87 -133.33,-34.7 111.58,211.11 123.57,409.17 117.44,510.54 -38.22,-124.46 -53.4,-142.87 -159.41,-195.05 78.62,294.3 48.73,569.88 -22.01,682.3 -15.64,-98.71 -85.83,-212.75 -88.37,-204.99 -15.2,46.51 -47.32,207.98 -246.4,336.08 -12.65,-198.26 6.02,-582.58 -266.21,-850.48 -183.19,-180.29 -498.61,-348.37 -549.96,-578.48 -52.07,-233.27 -50.73,-624.59 147.35,-779.95 306.5,-240.41 946.84,-367.07 1157.18,-90.68 29.71,39.05 20.87,91.68 -16.81,157.96 -74.56,-36.15 -136.77,-52.11 -195.19,-39.69 -351.37,74.69 -74.62,674.79 19.31,851.9zm-1937.32 -735.11c43.18,49.07 64.7,136.41 76.09,202.84 -70.38,-25.98 -214.02,-113.25 -263.52,-152.98 -62.68,-50.35 -240.15,-197.92 -211.09,-360.39 104.47,-37.05 328.76,231.31 398.52,310.53zm30.7 -36.55c-58.62,-32.96 -272.1,-249.87 -265.66,-378.82 74.59,-3.78 251.28,221.77 265.66,378.82zm-639.25 80.95c-168.63,-121.64 -377.18,-528.72 -312.24,-863.39 69.66,188.92 499.52,710.04 684.15,864.96 -54.22,-26.15 -200.91,-58.39 -371.91,-1.57zm1816.7 1328.18c-174.07,-12.52 -143.73,-172.99 -551.51,-375.15 -134.31,-60.9 -205.2,-95.38 -318.81,-155.88 -28.47,-15.17 -11.41,-49.54 -71.46,-160 -20.31,-37.39 -45.46,-120.95 -61.37,-159.69 -82.36,-200.52 -60.51,-338.51 -121.15,-549.78 -83.61,-291.21 -223.5,-412.66 -332.5,-621.95 104.45,69.43 340.35,442.61 392.29,576.06 112.69,289.5 119.9,835.86 674.92,923.65 74.95,11.84 101,1.53 146.2,53.68 38.27,44.16 62.31,51.75 104.91,93.11 68.73,66.65 217.25,144.34 138.48,375.95zm-1591.36 -1515.63c-379.29,-361.91 -545.1,-808.69 -344.37,-1121.5 86.8,264.5 170.13,685.75 471.18,970.47 -72.36,-55.85 -147.26,-25.72 -147.26,-25.72 -24.44,44.19 -37.87,106.99 20.45,176.75zm169.86 -113.03c-363.6,-372.45 -479.76,-1019.79 -194.88,-1337.63 65.64,522.85 -21.17,712.89 284.13,1224.94 -44.47,-39.41 -117.84,-60.89 -119.5,-55.64 -0.82,2.64 -17.07,87.08 30.25,168.33z"/>
   <path class="fil0" d="M1195.42 924.39l29.5 26.27c339.33,-256.28 761.83,-408.25 1219.85,-408.25 559.44,0 1065.94,226.76 1432.56,593.37 366.61,366.62 593.38,873.11 593.38,1432.57 0,559.44 -226.77,1065.94 -593.38,1432.56 -366.62,366.61 -873.12,593.37 -1432.56,593.37 -547.78,0 -1044.77,-217.39 -1409.42,-570.58l-80.55 -26.01c9.9,10.31 19.9,20.51 30,30.62 373.64,373.63 889.82,604.74 1459.97,604.74 570.13,0 1086.32,-231.11 1459.96,-604.74 373.63,-373.64 604.74,-889.83 604.74,-1459.96 0,-570.15 -231.11,-1086.33 -604.74,-1459.97 -373.64,-373.63 -889.83,-604.74 -1459.96,-604.74 -469.54,0 -902.48,156.75 -1249.35,420.75z"/>
  </g>
  <path class="fil1" d="M6351.78 3050.69l-16.41 0 -458.8 -1135.08c-32.52,-79.95 -59.37,-126.49 -80.25,-140.21 -21.19,-13.73 -42.66,-20.58 -64.73,-20.58l0 -12.53 297.11 0 0 12.53c-26.24,-1.79 -39.37,8.34 -39.37,30.73 0,8.64 1.79,17.89 5.36,27.74l400.35 991 396.75 -990.1c5.07,-13.43 7.77,-24.17 7.77,-32.22 0,-20 -15.22,-28.94 -45.94,-27.15l0 -12.53 193.3 0 0 12.53c-13.43,0 -27.45,1.79 -42.37,5.66 -14.91,3.87 -30.13,18.79 -45.94,45.05 -15.81,26.26 -23.85,40.28 -24.45,42.07l-482.38 1203.09zm1563.21 -1295.87l0 -12.53 810.83 0 0 177.19 -12.53 0c-17.6,-66.22 -32.22,-104.99 -44.16,-116.63 -12.21,-11.64 -41.45,-17.6 -88.29,-17.6l-425.99 0 0 578.13 395.56 0c39.37,0 64.14,-3.59 74.59,-11.04 10.43,-7.17 16.1,-17.89 16.7,-31.92l12.52 0 0 121.72 -12.52 0c-3,-17 -9.85,-28.34 -20.6,-34.32 -10.72,-5.66 -30.72,-8.64 -60.26,-8.64l-405.99 0 0 397.35c0,60.26 5.66,103.52 16.71,129.76 11.02,26.55 28.62,43.26 53.09,49.83 24.17,6.86 60.86,10.13 109.78,10.13l227.92 0c72.48,0 118.72,-2.38 139,-7.45 20,-4.78 37,-14.91 51.02,-29.53 14.03,-14.92 25.05,-47.13 32.52,-97.25l12.53 0 0 177.2 -882.43 0 0 -12.54c29.84,-1.79 52.52,-7.45 68.03,-17 15.51,-9.54 23.26,-34.6 23.26,-74.88l0 -1041.41c0,-47.13 -4.17,-80.54 -12.23,-99.63 -8.35,-19.41 -34.61,-28.94 -79.06,-28.94zm2922.66 -12.53l247.01 0 0 12.53c-37,1.19 -62.65,9.24 -76.97,24.15 -14.32,14.62 -21.49,45.94 -21.49,93.97l0 1172.38 -1029.17 -1093.62 0 952.22c0,30.43 2.38,52.8 6.85,67.42 4.77,14.62 11.34,24.47 19.69,29.53 8.65,5.38 30.42,10.45 64.74,15.81l0 12.54 -245.22 0 0 -12.54c44.16,0 71.59,-7.74 82.33,-23.56 10.75,-15.81 16.11,-53.4 16.11,-112.76l0 -871.38c0,-76.07 -10.72,-138.42 -31.92,-186.75 -21.17,-48.62 -70.09,-70.99 -147.06,-67.41l0 -12.53 241.33 0 966.85 1027.09 0 -908.95c0,-48.94 -8.66,-78.76 -25.96,-89.5 -17.6,-10.75 -39.97,-16.11 -67.12,-16.11l0 -12.53zm1268.47 12.53l0 -12.53 810.83 0 0 177.19 -12.53 0c-17.6,-66.22 -32.22,-104.99 -44.16,-116.63 -12.21,-11.64 -41.45,-17.6 -88.29,-17.6l-425.99 0 0 578.13 395.56 0c39.37,0 64.14,-3.59 74.59,-11.04 10.43,-7.17 16.11,-17.89 16.7,-31.92l12.52 0 0 121.72 -12.52 0c-3,-17 -9.85,-28.34 -20.59,-34.32 -10.73,-5.66 -30.73,-8.64 -60.27,-8.64l-405.99 0 0 397.35c0,60.26 5.66,103.52 16.71,129.76 11.02,26.55 28.62,43.26 53.09,49.83 24.17,6.86 60.86,10.13 109.78,10.13l227.92 0c72.48,0 118.72,-2.38 139,-7.45 20,-4.78 37,-14.91 51.03,-29.53 14.02,-14.92 25.04,-47.13 32.51,-97.25l12.53 0 0 177.2 -882.43 0 0 -12.54c29.84,-1.79 52.52,-7.45 68.03,-17 15.51,-9.54 23.26,-34.6 23.26,-74.88l0 -1041.41c0,-47.13 -4.17,-80.54 -12.23,-99.63 -8.35,-19.41 -34.6,-28.94 -79.06,-28.94zm2877.91 -55.5l-60.86 153.94 -12.53 0c2.39,-9.56 3.6,-22.07 3.6,-37.88 0,-13.73 -4.79,-22.38 -14.62,-26.26 -9.56,-3.87 -24.77,-5.66 -45.95,-5.66l-336.8 0 0 1101.97c0,45.64 3.57,76.67 11.04,93.37 7.15,16.41 17.3,26.84 29.83,31.33 12.54,4.47 33.11,6.55 61.16,6.55l0 12.54 -349.04 0 0 -12.54c43.56,-2.98 71.01,-11.34 82.05,-25.34 11.02,-14.03 16.4,-42.97 16.4,-87.42l0 -1120.46 -322.18 0c-32.52,0 -53.69,1.79 -63.84,5.66 -9.84,3.88 -14.62,13.43 -14.62,28.64 0,7.75 2.09,19.69 6.87,35.5l-12.53 0 -60.86 -153.94 12.53 0c10.43,20.3 20.88,32.52 31.03,36.71 10.13,4.17 32.21,6.26 65.92,6.26l855.26 0c33.73,0 57.88,-2.09 72.8,-6.26 14.91,-4.19 25.96,-16.41 32.81,-36.71l12.53 0zm1603.22 21.49c180.76,0 328.74,55.18 443.58,165.26 114.85,110.08 172.13,247.31 172.13,411.97 0,212.11 -66.52,390.49 -199.28,535.49 -133.04,144.68 -309.34,217.16 -529.19,217.16 -178.41,0 -324.28,-58.46 -437.93,-175.11 -113.67,-116.93 -170.64,-257.14 -170.64,-420.63 0,-110.37 27.45,-223.73 82.33,-339.77 54.58,-116.35 137.23,-211.21 247.31,-284.29 110.07,-73.39 240.73,-110.08 391.69,-110.08zm-5.09 1261.87c88.61,0 176.02,-23.86 262.23,-71.31 86.22,-47.73 154.23,-113.35 203.75,-196.88 49.51,-83.52 74.28,-169.44 74.28,-257.73 0,-125 -33.41,-238.67 -99.95,-340.98 -66.81,-102.33 -153.32,-182.28 -259.82,-240.14 -106.2,-57.88 -204.64,-86.82 -294.74,-86.82 -127.67,0 -243.41,48.33 -347.53,144.68 -104.12,96.36 -156.02,216.28 -156.02,359.47 0,182.88 63.54,343.37 190.62,482.08 127.08,138.43 269.37,207.63 427.18,207.63z"/>
 </g>
</svg>
