<?xml version="1.0" encoding="UTF-8"?>
<!DOCTYPE svg PUBLIC "-//W3C//DTD SVG 1.1//EN" "http://www.w3.org/Graphics/SVG/1.1/DTD/svg11.dtd">
<!-- Creator: CorelDRAW 2018 (64-Bit) -->
<svg xmlns="http://www.w3.org/2000/svg" xml:space="preserve" width="400mm" height="400mm" version="1.1" style="shape-rendering:geometricPrecision; text-rendering:geometricPrecision; image-rendering:optimizeQuality; fill-rule:evenodd; clip-rule:evenodd"
viewBox="0 0 40000 40000"
 xmlns:xlink="http://www.w3.org/1999/xlink">
 <defs>
  <style type="text/css">
   <![CDATA[
    .str0 {stroke:#4E6874;stroke-width:400;stroke-miterlimit:22.9256}
    .fil0 {fill:none}
    .fil1 {fill:#4E6874}
   ]]>
  </style>
 </defs>
 <g id="Слой_x0020_1">
  <metadata id="CorelCorpID_0Corel-Layer"/>
  <path class="fil0 str0" d="M8442.77 7014.04c3295.6,-3003.9 7594.1,-4668.98 12053.3,-4668.98 9881.86,0 17892.7,8010.84 17892.7,17892.7 0,9881.87 -8010.84,17892.7 -17892.7,17892.7 -2996.91,0 -5945.82,-752.76 -8576.05,-2189.2"/>
  <rect class="fil1" x="1495.72" y="33174.94" width="25836.55" height="210.33"/>
  <polyline class="fil0 str0" points="2741.94,24393.44 2741.94,14523.16 14418.73,7859.58 25940.61,14523.16 25940.61,33245.83 2572.37,33174.94 "/>
  <rect class="fil0 str0" x="12055.76" y="16921.6" width="10816.17" height="10668.01"/>
  <rect class="fil0 str0" x="12055.76" y="16921.61" width="10816.17" height="3630.08"/>
  <rect class="fil0 str0" x="12055.76" y="20551.69" width="10816.17" height="3630.08"/>
  <path class="fil0 str0" d="M6182.14 31684.51l-2360.18 -9.71 0 -4085.18 20341.18 0 0 4085.18 -3307.27 0m-3344.35 0l-8064.5 -10.58"/>
  <circle class="fil0 str0" cx="7853.69" cy="31412.18" r="1693.33"/>
  <circle class="fil0 str0" cx="19283.78" cy="31412.18" r="1693.33"/>
  <circle class="fil0 str0" cx="19338.53" cy="31406.72" r="250.98"/>
  <circle class="fil0 str0" cx="7837.04" cy="31402.1" r="250.98"/>
  <rect class="fil0 str0" x="12055.77" y="16921.6" width="5482.34" height="10668.01"/>
  <rect class="fil0 str0" x="13985.36" y="18519.4" width="1647.75" height="553.01"/>
  <rect class="fil0 str0" x="19372.29" y="18519.4" width="1647.75" height="553.01"/>
  <rect class="fil0 str0" x="19372.29" y="22022.5" width="1647.75" height="553.01"/>
  <rect class="fil0 str0" x="13997.11" y="22022.5" width="1647.75" height="553.01"/>
  <rect class="fil0 str0" x="13997.69" y="25514.99" width="1647.75" height="553.01"/>
  <rect class="fil0 str0" x="19369.95" y="25514.99" width="1647.75" height="553.01"/>
  <polygon class="fil0 str0" points="14386.45,10357.49 16585.68,11917.85 16585.68,14947.52 12183,14947.52 12183,11917.85 "/>
  <rect class="fil1" x="14191.55" y="10430.14" width="377.42" height="4517.38"/>
  <polygon class="fil0 str0" points="4250.9,27589.62 7595.23,21019.57 10458.02,21014.26 10458.02,27589.62 "/>
  <rect class="fil1" x="1503.65" y="32967.42" width="25866.58" height="414.53"/>
  <rect class="fil1" x="10250.16" y="20080.11" width="409.16" height="7435.14"/>
 </g>
</svg>
