<?xml version="1.0" encoding="UTF-8"?>
<!DOCTYPE svg PUBLIC "-//W3C//DTD SVG 1.1//EN" "http://www.w3.org/Graphics/SVG/1.1/DTD/svg11.dtd">
<!-- Creator: CorelDRAW 2018 (64-Bit) -->
<svg xmlns="http://www.w3.org/2000/svg" xml:space="preserve" width="400mm" height="400mm" version="1.1" style="shape-rendering:geometricPrecision; text-rendering:geometricPrecision; image-rendering:optimizeQuality; fill-rule:evenodd; clip-rule:evenodd"
viewBox="0 0 40000 40000"
 xmlns:xlink="http://www.w3.org/1999/xlink">
 <defs>
  <style type="text/css">
   <![CDATA[
    .str0 {stroke:#4E6874;stroke-width:400;stroke-miterlimit:22.9256}
    .fil0 {fill:none}
   ]]>
  </style>
 </defs>
 <g id="Слой_x0020_1">
  <metadata id="CorelCorpID_0Corel-Layer"/>
  <path class="fil0 str0" d="M8101.23 7114c3295.6,-3003.9 7594.1,-4668.98 12053.3,-4668.98 9881.86,0 17892.7,8010.84 17892.7,17892.7 0,9881.87 -8010.84,17892.7 -17892.7,17892.7 -2996.91,0 -5945.82,-752.76 -8576.05,-2189.2"/>
  <path class="fil0 str0" d="M9712.04 10067.68l-6985 0c-275.16,0 -836.1,126.99 -889.01,867.83 -52.91,740.84 507.99,1118.43 1185.32,1097.26 677.33,-21.17 22145.66,-17.79 22415.54,-17.79 269.88,0 1069.59,-16.26 1037.84,-1037.53 -31.75,-1021.27 -1111.93,-972.09 -1111.93,-972.09l-13705.43 41.15"/>
  <path class="fil0 str0" d="M18515.53 33989.59l6985 0c275.16,0 836.1,-126.99 889.01,-867.83 52.91,-740.84 -507.99,-1118.43 -1185.32,-1097.26 -677.33,21.17 -22145.66,17.79 -22415.54,17.79 -269.88,0 -1069.59,16.26 -1037.84,1037.53 31.75,1021.27 1111.93,972.09 1111.93,972.09l13705.43 -41.15"/>
  <rect class="fil0 str0" x="2818.97" y="12026.72" width="22631.89" height="20008.35"/>
  <polyline class="fil0 str0" points="15056.67,23984.6 15056.67,30225.34 23481,30225.34 23481,13884.67 15056.67,13884.67 15083.12,20037 "/>
  <polyline class="fil0 str0" points="13299.84,23966.92 13299.84,30207.66 4875.51,30207.66 4875.51,13866.99 13299.84,13866.99 13273.39,20019.32 "/>
  <rect class="fil0 str0" x="12278.69" y="20089.97" width="1883.83" height="3852.34"/>
  <rect class="fil0 str0" x="14162.52" y="20089.39" width="1883.83" height="3852.34"/>
  <rect class="fil0 str0" x="16046.35" y="21185.32" width="7434.65" height="1820.34"/>
  <rect class="fil0 str0" x="4875.51" y="21190.02" width="7402.4" height="1820.34"/>
 </g>
</svg>
