<?xml version="1.0" encoding="UTF-8"?>
<!DOCTYPE svg PUBLIC "-//W3C//DTD SVG 1.1//EN" "http://www.w3.org/Graphics/SVG/1.1/DTD/svg11.dtd">
<!-- Creator: CorelDRAW 2018 (64-Bit) -->
<svg xmlns="http://www.w3.org/2000/svg" xml:space="preserve" width="400mm" height="400mm" version="1.1" style="shape-rendering:geometricPrecision; text-rendering:geometricPrecision; image-rendering:optimizeQuality; fill-rule:evenodd; clip-rule:evenodd"
viewBox="0 0 40000 40000"
 xmlns:xlink="http://www.w3.org/1999/xlink">
 <defs>
  <style type="text/css">
   <![CDATA[
    .str1 {stroke:#FEFEFE;stroke-width:300;stroke-miterlimit:22.9256}
    .str0 {stroke:#FEFEFE;stroke-width:400;stroke-miterlimit:22.9256}
    .fil0 {fill:none}
    .fil1 {fill:#FEFEFE}
   ]]>
  </style>
 </defs>
 <g id="Слой_x0020_1">
  <metadata id="CorelCorpID_0Corel-Layer"/>
  <polygon class="fil0 str0" points="2084.56,14424.48 8880.29,14424.48 8880.29,9483.19 2131.21,9483.19 "/>
  <polygon class="fil0 str0" points="19481.1,14435 26276.83,14435 26276.83,9493.71 19527.75,9493.71 "/>
  <polygon class="fil0 str0" points="9353.91,16221.53 19176.38,16190.84 17567.74,14396.83 17567.74,9485.87 10818.66,9485.87 10780.11,14391.28 "/>
  <polygon class="fil0 str0" points="6528.19,13312.07 7682.15,13312.07 7682.15,11512.9 6536.11,11512.9 "/>
  <polygon class="fil0 str0" points="20582.86,13310.91 21736.82,13310.91 21736.82,11511.74 20590.78,11511.74 "/>
  <rect class="fil1" x="2002.18" y="17582.54" width="7027.34" height="444.5"/>
  <rect class="fil1" x="2774.75" y="16717.03" width="399.47" height="3619.51"/>
  <rect class="fil1" x="4409.88" y="16722.9" width="410.05" height="3619.51"/>
  <rect class="fil1" x="6001.16" y="16720.56" width="409.56" height="3619.51"/>
  <circle class="fil0 str0" cx="3017.6" cy="21077.36" r="794.34"/>
  <circle class="fil0 str0" cx="4637.97" cy="21075.25" r="794.34"/>
  <circle class="fil0 str0" cx="6223.8" cy="21074.47" r="794.34"/>
  <rect class="fil0 str0" x="2236.57" y="24360.52" width="6603.99" height="9165.2"/>
  <rect class="fil0 str0" x="8838.8" y="24360.6" width="10839.1" height="9165.2"/>
  <rect class="fil0 str0" x="19675.58" y="24358.75" width="6603.99" height="9165.2"/>
  <rect class="fil0 str1" x="2236.57" y="24360.53" width="6603.99" height="3516.59"/>
  <rect class="fil0 str1" x="19675.58" y="24358.76" width="6603.99" height="3547.44"/>
  <rect class="fil0 str0" x="4809.77" y="25687.7" width="1443.17" height="768.48"/>
  <rect class="fil0 str0" x="4809.77" y="29059.69" width="1443.17" height="768.48"/>
  <rect class="fil0 str0" x="22187.62" y="25620.09" width="1443.17" height="768.48"/>
  <rect class="fil0 str0" x="20836.81" y="29789.91" width="867.84" height="1354.67"/>
  <rect class="fil0 str0" x="24064.73" y="29789.91" width="867.84" height="1354.67"/>
  <rect class="fil0 str0" x="10459.88" y="27821.39" width="7302.5" height="3926.42"/>
  <rect class="fil0 str0" x="11168.98" y="25503.62" width="973.67" height="963.09"/>
  <rect class="fil0 str0" x="12848.23" y="25503.62" width="973.67" height="963.09"/>
  <rect class="fil0 str0" x="14523.31" y="25480.71" width="973.67" height="963.09"/>
  <rect class="fil0 str0" x="16156.65" y="25480.12" width="973.67" height="963.09"/>
  <rect class="fil0 str0" x="9602.61" y="21787.13" width="4296.84" height="2573.48"/>
  <rect class="fil0 str1" x="8486.69" y="22782.02" width="1074.21" height="1.61"/>
  <rect class="fil0 str1" x="13933.04" y="22803.18" width="1074.21" height="1.61"/>
  <path class="fil0 str0" d="M22831.79 20116.59c0,0 21.17,-1534.59 1291.17,-1534.59 1270,0 1312.33,1555.76 1312.33,1555.76l0 4221"/>
  <path class="fil0 str0" d="M8480.11 7041.34c3295.6,-3003.9 7594.1,-4668.98 12053.3,-4668.98 9881.86,0 17892.7,8010.84 17892.7,17892.7 0,9881.87 -8010.84,17892.7 -17892.7,17892.7 -2996.91,0 -5945.82,-752.76 -8576.05,-2189.2"/>
 </g>
</svg>
