<?xml version="1.0" encoding="UTF-8"?>
<!DOCTYPE svg PUBLIC "-//W3C//DTD SVG 1.1//EN" "http://www.w3.org/Graphics/SVG/1.1/DTD/svg11.dtd">
<!-- Creator: CorelDRAW 2018 (64-Bit) -->
<svg xmlns="http://www.w3.org/2000/svg" xml:space="preserve" width="400mm" height="400mm" version="1.1" style="shape-rendering:geometricPrecision; text-rendering:geometricPrecision; image-rendering:optimizeQuality; fill-rule:evenodd; clip-rule:evenodd"
viewBox="0 0 40000 40000"
 xmlns:xlink="http://www.w3.org/1999/xlink">
 <defs>
  <style type="text/css">
   <![CDATA[
    .str0 {stroke:#FEFEFE;stroke-width:400;stroke-miterlimit:22.9256}
    .str1 {stroke:white;stroke-width:400;stroke-miterlimit:22.9256}
    .fil0 {fill:none}
   ]]>
  </style>
 </defs>
 <g id="Слой_x0020_1">
  <metadata id="CorelCorpID_0Corel-Layer"/>
  <path class="fil0 str0" d="M3206.56 17872.52l31.23 14763.71 23241.01 -42.34 125.9 -14733.32m38.85 -5079.24l-2620.09 -2962.78 -18118.67 0 -2825.74 3037.41"/>
  <path class="fil0 str0" d="M2464.05 12855.96l4110.56 0 20.05 3534.84c0,0 -29.34,1786.93 -2054.53,1797.51 -2025.19,10.58 -2096.67,-1869.47 -2096.67,-1869.47l20.59 -3462.88z"/>
  <path class="fil0 str0" d="M6648.18 12855.96l4110.55 0 20.06 3534.84c0,0 -29.35,1786.93 -2054.54,1797.51 -2025.18,10.58 -2096.67,-1869.47 -2096.67,-1869.47l20.6 -3462.88z"/>
  <path class="fil0 str0" d="M10872.88 12855.96l4110.56 0 20.05 3534.84c0,0 -29.34,1786.93 -2054.53,1797.51 -2025.19,10.58 -2096.67,-1869.47 -2096.67,-1869.47l20.59 -3462.88z"/>
  <path class="fil0 str0" d="M15003.48 12855.96l4110.56 0 20.05 3534.84c0,0 -29.34,1786.93 -2054.53,1797.51 -2025.19,10.58 -2096.67,-1869.47 -2096.67,-1869.47l20.59 -3462.88z"/>
  <path class="fil0 str0" d="M19154.14 12855.96l4110.55 0 20.06 3534.84c0,0 -29.35,1786.93 -2054.53,1797.51 -2025.19,10.58 -2096.68,-1869.47 -2096.68,-1869.47l20.6 -3462.88z"/>
  <path class="fil0 str0" d="M23284.75 12855.96l4110.55 0 20.06 3534.84c0,0 -29.35,1786.93 -2054.54,1797.51 -2025.18,10.58 -2096.67,-1869.47 -2096.67,-1869.47l20.6 -3462.88z"/>
  <rect class="fil0 str0" x="13323.72" y="19597.6" width="10668" height="2709.34"/>
  <rect class="fil0 str0" x="5238.06" y="22793.75" width="6371.17" height="9833.09"/>
  <rect class="fil0 str0" x="11619.23" y="23449.92" width="13271.5" height="6921.51"/>
  <rect class="fil0 str0" x="11598.06" y="30384.99" width="14910.13" height="2222.5"/>
  <path class="fil0 str0" d="M13589.12 30374.21l2567.65 0 12.53 -1538.02c0,0 -18.33,-1116.21 -1283.36,-1122.82 -1265.03,-6.6 -1309.68,1167.77 -1309.68,1167.77l12.86 1493.07z"/>
  <path class="fil0 str0" d="M20249.86 30372.23l2567.65 0 12.53 -1538.02c0,0 -18.33,-1116.21 -1283.36,-1122.82 -1265.03,-6.6 -1309.68,1167.77 -1309.68,1167.77l12.86 1493.07z"/>
  <rect class="fil0 str0" x="11600.39" y="23486.93" width="6593.45" height="2709.34"/>
  <rect class="fil0 str0" x="18235.53" y="23486.93" width="6593.45" height="2709.34"/>
  <rect class="fil0 str0" x="2432.89" y="32662.7" width="24786.78" height="1669.53"/>
  <path class="fil0 str1" d="M8884.76 6891.03c3295.6,-3003.9 7594.1,-4668.98 12053.3,-4668.98 9881.86,0 17892.7,8010.84 17892.7,17892.7 0,9881.87 -8010.84,17892.7 -17892.7,17892.7 -2996.91,0 -5945.82,-752.76 -8576.05,-2189.2"/>
 </g>
</svg>
