<?xml version="1.0" encoding="UTF-8"?>
<!DOCTYPE svg PUBLIC "-//W3C//DTD SVG 1.1//EN" "http://www.w3.org/Graphics/SVG/1.1/DTD/svg11.dtd">
<!-- Creator: CorelDRAW 2018 (64-Bit) -->
<svg xmlns="http://www.w3.org/2000/svg" xml:space="preserve" width="200mm" height="200mm" version="1.1" style="shape-rendering:geometricPrecision; text-rendering:geometricPrecision; image-rendering:optimizeQuality; fill-rule:evenodd; clip-rule:evenodd"
viewBox="0 0 20000 20000"
 xmlns:xlink="http://www.w3.org/1999/xlink">
 <defs>
  <style type="text/css">
   <![CDATA[
    .str0 {stroke:white;stroke-width:200;stroke-miterlimit:22.9256}
    .str1 {stroke:white;stroke-width:250;stroke-miterlimit:22.9256}
    .fil0 {fill:none}
    .fil1 {fill:white}
   ]]>
  </style>
 </defs>
 <g id="Слой_x0020_1">
  <metadata id="CorelCorpID_0Corel-Layer"/>
  <path class="fil0 str0" d="M5117.64 3539.46c1635.34,-1490.59 3768.33,-2316.83 5981.07,-2316.83 4903.57,0 8878.69,3975.13 8878.69,8878.69 0,4903.56 -3975.12,8878.69 -8878.69,8878.69 -1487.12,0 -2950.42,-373.53 -4255.59,-1086.32"/>
  <rect class="fil0 str1" x="6054.41" y="4421.74" width="6953.18" height="4978.56"/>
  <polygon class="fil0 str1" points="6380.02,4421.74 12724.01,4421.74 9636.04,7625.24 "/>
  <polyline class="fil0 str1" points="8773.36,6855.6 6054.41,9015.59 6054.41,9400.3 13007.59,9400.3 13007.59,9016.5 10429.24,6874.88 "/>
  <path class="fil0 str1" d="M3628.14 13415.21l2268.71 -2415.75 3613.13 0c0,0 658.98,-31.28 658.98,546.41 0,577.68 -637.97,650.96 -637.97,650.96l-1260.4 0c0,0 -661.71,-52.52 -672.21,525.16 -10.5,577.69 630.2,588.19 630.2,588.19l2898.91 -21.01 1092.34 -1155.36c0,0 555.48,-570.6 1007.12,-223.99 451.65,346.61 274.28,749.15 -166.86,1232.31 -441.14,483.15 -1449.45,1575.49 -1449.45,1575.49l-5356.68 -42.01 -693.22 567.17 -1932.6 -1827.57z"/>
  <polygon class="fil0 str1" points="2903.42,12774.49 6369.51,16135.55 5151.13,17364.44 592.69,17374.94 592.69,14980.19 "/>
  <rect class="fil1" transform="matrix(0.352927 0.34882 -0.34882 0.352927 2024.84 13738)" width="9470.09" height="540.19"/>
 </g>
</svg>
