<?xml version="1.0" encoding="UTF-8"?>
<!DOCTYPE svg PUBLIC "-//W3C//DTD SVG 1.1//EN" "http://www.w3.org/Graphics/SVG/1.1/DTD/svg11.dtd">
<!-- Creator: CorelDRAW 2018 (64-Bit) -->
<svg xmlns="http://www.w3.org/2000/svg" xml:space="preserve" width="200mm" height="200mm" version="1.1" style="shape-rendering:geometricPrecision; text-rendering:geometricPrecision; image-rendering:optimizeQuality; fill-rule:evenodd; clip-rule:evenodd"
viewBox="0 0 20000 20000"
 xmlns:xlink="http://www.w3.org/1999/xlink">
 <defs>
  <style type="text/css">
   <![CDATA[
    .str0 {stroke:#4E6874;stroke-width:200;stroke-miterlimit:22.9256}
    .str1 {stroke:#4E6874;stroke-width:250;stroke-miterlimit:22.9256}
    .fil0 {fill:none}
    .fil1 {fill:#4E6874}
   ]]>
  </style>
 </defs>
 <g id="Слой_x0020_1">
  <metadata id="CorelCorpID_0Corel-Layer"/>
  <path class="fil0 str0" d="M3703.71 3535.35c1640.5,-1495.29 3780.24,-2324.15 5999.96,-2324.15 4919.07,0 8906.75,3987.68 8906.75,8906.75 0,4919.06 -3987.68,8906.74 -8906.75,8906.74 -1491.82,0 -2959.74,-374.71 -4269.04,-1089.75"/>
  <polyline class="fil0 str1" points="2406.15,10641.27 2406.15,4867.28 12731.91,4846.2 12837.27,15424.84 5272.08,15424.84 "/>
  <polygon class="fil1" points="2406.15,6368.64 12748.75,6368.64 12748.75,6613.75 2406.15,6613.75 "/>
  <polygon class="fil1" points="3106.84,5533.9 7326.68,5533.9 7326.68,5794.78 3106.84,5794.78 "/>
  <polygon class="fil1" points="10044.01,5474.4 10423.78,5474.4 10423.78,5844.5 10044.01,5844.5 "/>
  <polygon class="fil1" points="10805.76,5474.4 11185.53,5474.4 11185.53,5844.5 10805.76,5844.5 "/>
  <polygon class="fil1" points="11567.51,5474.88 11947.28,5474.88 11947.28,5844.99 11567.51,5844.99 "/>
  <polygon class="fil0 str1" points="10141.46,11285.2 10248.86,10407.03 9666.7,9772.99 10521.73,9575.13 10957.72,8796.68 11378.75,9552.56 12230.37,9705.5 11635.56,10370.52 11725.9,11243.49 10937.25,10898.61 "/>
  <polygon class="fil0 str1" points="6939.15,11281.31 7046.55,10403.14 6464.39,9769.1 7319.41,9571.25 7755.4,8792.79 8176.44,9548.68 9028.05,9701.61 8433.24,10366.63 8523.59,11239.6 7734.93,10894.72 "/>
  <polyline class="fil0 str1" points="4460.61,10942.68 4368.31,10902.32 3572.53,11288.91 3679.92,10410.75 3097.76,9776.7 3952.79,9578.84 4388.77,8800.4 4809.81,9556.28 5661.43,9709.21 5018.56,10358.39 "/>
  <path class="fil0 str1" d="M1729.92 14604.2l1592.94 1537.53c0,0 679.42,-385.73 1285.37,-901 642.27,-546.17 1214.65,-1225.2 1259.14,-1270.38 658.42,-668.87 93.15,-986.91 -425.6,-654.18 0,0 0.25,0.41 0.39,0.62 52.89,-37.14 458.2,-345.72 209.25,-694.26 -236.14,-330.6 -564.16,-33.48 -680.02,28.2 1.21,1.95 1.8,2.81 1.8,2.81 196.41,-137.45 500.45,-335.65 219.88,-673.73 -234.68,-282.79 -663.14,36.02 -787.24,132.34 -6.88,-6.96 -12.12,-11.48 -12.12,-11.48l1485.93 -1582.79c0,0 260.71,-304.14 35.19,-576.87 -71.06,-85.94 -338.88,-99.92 -532.56,70.36 -762.66,670.52 -2368.96,2462.07 -2593.46,2705.12 -14.69,-11.9 -31.09,-25.18 -46.51,-36.18l1.04 -1069.27c0,0 -126.44,-516.29 -505.75,-400.39 -379.31,115.9 -389.84,442.53 -389.84,442.53l10.13 2321.7 -250 511.53 122.04 117.79z"/>
  <path class="fil0 str1" d="M1607.88 14486.41l1714.97 1655.32c0,0 300.36,342.43 0.07,679.6 -300.29,337.17 -695.41,52.68 -695.41,52.68l-1759.6 -1696.37c0,0 -317.19,-362.07 17.87,-678.16 321.35,-273.95 722.1,-13.07 722.1,-13.07z"/>
 </g>
</svg>
